# xmcd
#
# Track frame offsets: 
#        187
#        24750
#        46477
#        72225
#        82725
#        97462
#        112837
#        156000
#
# Disc length: 2509 seconds
#
# Revision: 2
# Processed by: cddbd v1.5.1PL0 Copyright (c) Steve Scherf et al.
# Submitted via: ExactAudioCopy v0.95a5
#
DISCID=5809cb08
DTITLE=Eric Clapton - History Of (Disk 2)
DYEAR=1972
DGENRE=Blues
TTITLE0=Sea Of Joy
TTITLE1=Only You Know And I Know
TTITLE2=I Don't Want To Discuss It
TTITLE3=Teasin'
TTITLE4=Blues Power
TTITLE5=Tell The Truth
TTITLE6=Tell The Truth-Jam
TTITLE7=Layla
EXTD=YEAR: 1972
EXTT0=
EXTT1=
EXTT2=
EXTT3=
EXTT4=
EXTT5=
EXTT6=
EXTT7=
PLAYORDER=
